<?xml version="1.0" encoding="UTF-8"?>
<svg
  width="800"
  height="520"
  viewBox="0 0 800 520"
  fill="none"
  xmlns="http://www.w3.org/2000/svg"
  xmlns:xlink="http://www.w3.org/1999/xlink"
>
  <defs>
    <filter id="shadow" x="-20%" y="-20%" width="140%" height="140%">
      <feDropShadow dx="0" dy="10" stdDeviation="10" flood-color="#000000" flood-opacity="0.10" />
    </filter>
    <clipPath id="c1"><circle cx="0" cy="0" r="58" /></clipPath>
    <clipPath id="c2"><circle cx="0" cy="0" r="58" /></clipPath>
    <clipPath id="c3"><circle cx="0" cy="0" r="58" /></clipPath>
    <clipPath id="c4"><circle cx="0" cy="0" r="58" /></clipPath>
    <clipPath id="c5"><circle cx="0" cy="0" r="58" /></clipPath>
    <clipPath id="c6"><circle cx="0" cy="0" r="58" /></clipPath>
  </defs>

  <rect x="0" y="0" width="800" height="520" rx="20" fill="#FFFFFF" />
  <rect x="28" y="28" width="744" height="464" rx="18" fill="#F6F7F9" stroke="#E6E8EC" stroke-width="4" />

  <!-- A “tray” of real brands to pick from -->
  <g transform="translate(0 0)" filter="url(#shadow)">
    <rect x="140" y="120" width="520" height="250" rx="20" fill="#FFFFFF" stroke="#E6E8EC" stroke-width="4" />

    <!-- circles -->
    <g transform="translate(220 190)">
      <circle cx="0" cy="0" r="68" fill="#FFFFFF" stroke="#E6E8EC" stroke-width="4" />
      <g clip-path="url(#c1)">
        <image x="-70" y="-70" width="140" height="140" href="pablo-bluemint.jpg" xlink:href="pablo-bluemint.jpg" preserveAspectRatio="xMidYMid slice" />
      </g>
      <rect x="-40" y="56" width="80" height="20" rx="999" fill="#111114" opacity="0.92" />
      <text x="0" y="71" text-anchor="middle" font-family="system-ui, -apple-system, Segoe UI, Roboto, Arial" font-size="10" font-weight="900" fill="#FFFFFF">PABLO</text>
    </g>

    <g transform="translate(400 190)">
      <circle cx="0" cy="0" r="68" fill="#FFFFFF" stroke="#E6E8EC" stroke-width="4" />
      <g clip-path="url(#c2)">
        <image x="-70" y="-70" width="140" height="140" href="zafari-jalapenolime.jpg" xlink:href="zafari-jalapenolime.jpg" preserveAspectRatio="xMidYMid slice" />
      </g>
      <rect x="-44" y="56" width="88" height="20" rx="999" fill="#16A34A" />
      <text x="0" y="71" text-anchor="middle" font-family="system-ui, -apple-system, Segoe UI, Roboto, Arial" font-size="10" font-weight="900" fill="#FFFFFF">ZAFARI</text>
    </g>

    <g transform="translate(580 190)">
      <circle cx="0" cy="0" r="68" fill="#FFFFFF" stroke="#E6E8EC" stroke-width="4" />
      <g clip-path="url(#c3)">
        <image x="-70" y="-70" width="140" height="140" href="zyn-freshmint.jpg" xlink:href="zyn-freshmint.jpg" preserveAspectRatio="xMidYMid slice" />
      </g>
      <rect x="-28" y="56" width="56" height="20" rx="999" fill="#111114" opacity="0.92" />
      <text x="0" y="71" text-anchor="middle" font-family="system-ui, -apple-system, Segoe UI, Roboto, Arial" font-size="10" font-weight="900" fill="#FFFFFF">ZYN</text>
    </g>

    <g transform="translate(260 290)">
      <circle cx="0" cy="0" r="68" fill="#FFFFFF" stroke="#E6E8EC" stroke-width="4" />
      <g clip-path="url(#c4)">
        <image x="-70" y="-70" width="140" height="140" href="iceberg-watermelon.jpg" xlink:href="iceberg-watermelon.jpg" preserveAspectRatio="xMidYMid slice" />
      </g>
      <rect x="-44" y="56" width="88" height="20" rx="999" fill="#111114" opacity="0.12" />
      <text x="0" y="71" text-anchor="middle" font-family="system-ui, -apple-system, Segoe UI, Roboto, Arial" font-size="10" font-weight="900" fill="#111114">ICEBERG</text>
    </g>

    <g transform="translate(440 290)">
      <circle cx="0" cy="0" r="68" fill="#FFFFFF" stroke="#E6E8EC" stroke-width="4" />
      <g clip-path="url(#c5)">
        <image x="-70" y="-70" width="140" height="140" href="velo-strawberryice.jpg" xlink:href="velo-strawberryice.jpg" preserveAspectRatio="xMidYMid slice" />
      </g>
      <rect x="-32" y="56" width="64" height="20" rx="999" fill="#111114" opacity="0.12" />
      <text x="0" y="71" text-anchor="middle" font-family="system-ui, -apple-system, Segoe UI, Roboto, Arial" font-size="10" font-weight="900" fill="#111114">VELO</text>
    </g>

    <g transform="translate(620 290)">
      <circle cx="0" cy="0" r="68" fill="#FFFFFF" stroke="#E6E8EC" stroke-width="4" />
      <g clip-path="url(#c6)">
        <image x="-70" y="-70" width="140" height="140" href="maggie-cherrytonic.jpg" xlink:href="maggie-cherrytonic.jpg" preserveAspectRatio="xMidYMid slice" />
      </g>
      <rect x="-40" y="56" width="80" height="20" rx="999" fill="#111114" opacity="0.12" />
      <text x="0" y="71" text-anchor="middle" font-family="system-ui, -apple-system, Segoe UI, Roboto, Arial" font-size="10" font-weight="900" fill="#111114">MAGGIE</text>
    </g>
  </g>

  <!-- simple pointer -->
  <g transform="translate(486 138)" filter="url(#shadow)">
    <path d="M40 0 L0 66 L30 66 L26 104 L52 104 L58 66 L88 66 Z" fill="#16A34A" opacity="0.92" />
    <path d="M44 14 L18 58 L42 58 L40 92 L50 92 L52 58 L76 58 Z" fill="#FFFFFF" opacity="0.75" />
  </g>

  <text x="400" y="468" text-anchor="middle" font-family="system-ui, -apple-system, Segoe UI, Roboto, Arial" font-size="26" font-weight="900" fill="#111114" opacity="0.85">Take a pouch</text>
</svg>


